<?xml version="1.0" encoding="UTF-8" standalone="no"?>
<!-- Created with Inkscape (http://www.inkscape.org/) -->

<svg
   xmlns:dc="http://purl.org/dc/elements/1.1/"
   xmlns:cc="http://creativecommons.org/ns#"
   xmlns:rdf="http://www.w3.org/1999/02/22-rdf-syntax-ns#"
   xmlns:svg="http://www.w3.org/2000/svg"
   xmlns="http://www.w3.org/2000/svg"
   xmlns:xlink="http://www.w3.org/1999/xlink"
   xmlns:sodipodi="http://sodipodi.sourceforge.net/DTD/sodipodi-0.dtd"
   xmlns:inkscape="http://www.inkscape.org/namespaces/inkscape"
   width="141.24471mm"
   height="121.02145mm"
   viewBox="0 0 500.47336 428.81617"
   id="svg4343"
   version="1.1"
   inkscape:version="0.91 r13725"
   sodipodi:docname="simple-conqueror-helmet.svg">
  <defs
     id="defs4345">
    <linearGradient
       inkscape:collect="always"
       xlink:href="#linearGradient3386"
       id="linearGradient3392"
       x1="74"
       y1="827.86218"
       x2="15.5"
       y2="827.86218"
       gradientUnits="userSpaceOnUse" />
    <linearGradient
       inkscape:collect="always"
       id="linearGradient3386">
      <stop
         style="stop-color:#b3b3b3;stop-opacity:1;"
         offset="0"
         id="stop3388" />
      <stop
         style="stop-color:#ffffff;stop-opacity:1"
         offset="1"
         id="stop3390" />
    </linearGradient>
    <linearGradient
       inkscape:collect="always"
       xlink:href="#linearGradient3386"
       id="linearGradient3376"
       x1="89.5"
       y1="827.86218"
       x2="36.5"
       y2="809.86218"
       gradientUnits="userSpaceOnUse" />
    <linearGradient
       inkscape:collect="always"
       xlink:href="#linearGradient3386"
       id="linearGradient4194"
       x1="57.616116"
       y1="814.65509"
       x2="53.823223"
       y2="812.24609"
       gradientUnits="userSpaceOnUse" />
    <linearGradient
       inkscape:collect="always"
       xlink:href="#linearGradient4196"
       id="linearGradient4202"
       x1="86.620583"
       y1="830.50739"
       x2="82.908272"
       y2="829.62354"
       gradientUnits="userSpaceOnUse" />
    <linearGradient
       inkscape:collect="always"
       id="linearGradient4196">
      <stop
         style="stop-color:#9c9696;stop-opacity:1"
         offset="0"
         id="stop4198" />
      <stop
         style="stop-color:#ffffff;stop-opacity:0"
         offset="1"
         id="stop4200" />
    </linearGradient>
  </defs>
  <sodipodi:namedview
     id="base"
     pagecolor="#ffffff"
     bordercolor="#666666"
     borderopacity="1.0"
     inkscape:pageopacity="0.0"
     inkscape:pageshadow="2"
     inkscape:zoom="1"
     inkscape:cx="290.49054"
     inkscape:cy="212.38543"
     inkscape:document-units="px"
     inkscape:current-layer="layer1"
     showgrid="false"
     fit-margin-top="0"
     fit-margin-left="0"
     fit-margin-right="0"
     fit-margin-bottom="0"
     inkscape:window-width="1302"
     inkscape:window-height="739"
     inkscape:window-x="0"
     inkscape:window-y="0"
     inkscape:window-maximized="1" />
  <metadata
     id="metadata4348">
    <rdf:RDF>
      <cc:Work
         rdf:about="">
        <dc:format>image/svg+xml</dc:format>
        <dc:type
           rdf:resource="http://purl.org/dc/dcmitype/StillImage" />
        <dc:title></dc:title>
      </cc:Work>
    </rdf:RDF>
  </metadata>
  <g
     inkscape:label="Capa 1"
     inkscape:groupmode="layer"
     id="layer1"
     transform="translate(-111.50946,-56.931467)">
    <g
       transform="matrix(5.4836301,0,0,5.4836301,-19.649894,-4225.9332)"
       id="g4204">
      <path
         sodipodi:nodetypes="csscsccsscccsc"
         inkscape:connector-curvature="0"
         id="path3353"
         d="m 24.395184,793.56108 c 0,0 16.617009,52.67945 40.65864,61.87184 24.041631,9.19239 35.223556,-3.15506 41.719296,-8.83883 5.65686,-4.94975 7.77818,-13.08148 7.77818,-13.08148 0,0 -8.48528,-0.70711 -10.96016,-1.76777 -2.47487,-1.06066 -5.656851,-2.82842 -5.656851,-2.82842 l 1.767767,-9.8995 c 0,0 6.717514,-14.84924 0,-26.16295 -6.717514,-11.31371 -24.395184,-13.08147 -29.698485,-9.89949 -5.3033,3.18198 -16.617009,13.08147 -16.617009,13.08147 l -2.828427,0.35355 -7.424621,8.13173 c 0,0 -10.606602,-4.24264 -13.435029,-6.0104 -2.828427,-1.76777 -5.303301,-4.94975 -5.303301,-4.94975 z"
         style="fill:url(#linearGradient3392);fill-opacity:1;fill-rule:evenodd;stroke:#4d4d4d;stroke-width:1px;stroke-linecap:butt;stroke-linejoin:miter;stroke-opacity:1" />
      <path
         sodipodi:nodetypes="csscscc"
         inkscape:connector-curvature="0"
         id="path3355"
         d="m 45.608387,806.99611 c 0,0 2.121321,26.5165 16.263456,36.416 14.142136,9.89949 24.748738,2.47487 30.759145,-2.47488 6.010408,-4.94975 5.656855,-10.96015 5.656855,-10.96015 0,0 4.949747,-15.55635 -1.060661,-27.57717 -6.010407,-12.02081 -13.401523,-14.16447 -25.809397,-12.52323 -11.907446,3.15052 -19.763644,8.30323 -25.809398,17.11943 z"
         style="fill:url(#linearGradient3376);fill-opacity:1;fill-rule:evenodd;stroke:#808080;stroke-width:1px;stroke-linecap:butt;stroke-linejoin:miter;stroke-opacity:1" />
      <path
         sodipodi:nodetypes="cscscc"
         inkscape:connector-curvature="0"
         id="path3357"
         d="m 49.143921,822.90601 c 0,0 0.607673,-5.25538 8.838834,-13.7002 4.514927,-4.63212 16.175069,-12.9047 16.175069,-12.9047 0,0 -12.109203,13.78859 -14.937631,18.73834 -2.828427,4.94975 -7.601398,14.93763 -7.601398,14.93763 z"
         style="fill:url(#linearGradient4194);fill-opacity:1;fill-rule:evenodd;stroke:#808080;stroke-width:1px;stroke-linecap:butt;stroke-linejoin:miter;stroke-opacity:1" />
      <path
         style="fill:url(#linearGradient4202);fill-opacity:1;fill-rule:evenodd;stroke:#808080;stroke-width:1px;stroke-linecap:butt;stroke-linejoin:miter;stroke-opacity:1"
         d="m 84.74987,846.10667 c 0,0 4.49746,-6.11114 4.573631,-17.90356 0.04178,-6.46834 -2.443075,-21.25451 -2.443075,-21.25451 0,0 -0.720716,11.68967 -2.712963,22.06134 -2.205025,11.47939 -7.384251,19.15211 -7.384251,19.15211 z"
         id="path3368"
         inkscape:connector-curvature="0"
         sodipodi:nodetypes="cscscc" />
    </g>
  </g>
</svg>
