<!DOCTYPE svg PUBLIC "-//W3C//DTD SVG 1.1//EN" "http://www.w3.org/Graphics/SVG/1.1/DTD/svg11.dtd">
<!-- Uploaded to: SVG Repo, www.svgrepo.com, Transformed by: SVG Repo Mixer Tools -->
<svg width="256px" height="256px" viewBox="0 0 1024.00 1024.00" class="icon" version="1.1" xmlns="http://www.w3.org/2000/svg" fill="#000000" stroke="#000000" stroke-width="16.384">
<g id="SVGRepo_bgCarrier" stroke-width="0" transform="translate(0,0), scale(1)">
<rect x="0" y="0" width="1024.00" height="1024.00" rx="245.76" fill="#7ed0ec" strokewidth="0"/>
</g>
<g id="SVGRepo_tracerCarrier" stroke-linecap="round" stroke-linejoin="round" stroke="#CCCCCC" stroke-width="6.144"/>
<g id="SVGRepo_iconCarrier">
<path d="M512 198.7c-33 0-59.9-26.9-59.9-59.9v-14.3c0-33 26.9-59.9 59.9-59.9s59.9 26.9 59.9 59.9v14.3c-0.1 33-26.9 59.9-59.9 59.9zM512 75c-27.3 0-49.5 22.2-49.5 49.5v14.3c0 27.3 22.2 49.5 49.5 49.5s49.5-22.2 49.5-49.5v-14.3C561.4 97.2 539.2 75 512 75z" fill="#986612"/>
<path d="M515.5 289.5h-5.8c-24.2 0-43.9-19.8-43.9-43.9v-71.8c0-24.2 19.8-43.9 43.9-43.9h5.8c24.2 0 43.9 19.8 43.9 43.9v71.8c0.1 24.1-19.7 43.9-43.9 43.9z" fill="#D8962A"/>
<path d="M512.6 584.5m-374.9 0a374.9 374.9 0 1 0 749.8 0 374.9 374.9 0 1 0-749.8 0Z" fill="#F6B13A"/>
<path d="M512.6 584.5m-309.1 0a309.1 309.1 0 1 0 618.2 0 309.1 309.1 0 1 0-618.2 0Z" fill="#F35426"/>
<path d="M512.6 584.5m-249.7 0a249.7 249.7 0 1 0 499.4 0 249.7 249.7 0 1 0-499.4 0Z" fill="#F4F4F4"/>
<path d="M313.3 584.5h-95.5c-7.6 0-13.9-6.2-13.9-13.9 0-7.6 6.2-13.9 13.9-13.9h95.5c7.6 0 13.9 6.2 13.9 13.9-0.1 7.7-6.3 13.9-13.9 13.9zM525.9 774.6V870c0 7.6-6.2 13.9-13.9 13.9-7.6 0-13.9-6.2-13.9-13.9v-95.5c0-7.6 6.2-13.9 13.9-13.9 7.6 0.1 13.9 6.3 13.9 14zM525.9 297.3v95.5c0 7.6-6.2 13.9-13.9 13.9-7.6 0-13.9-6.2-13.9-13.9v-95.5c0-7.6 6.2-13.9 13.9-13.9 7.6 0 13.9 6.3 13.9 13.9zM810 584.5h-95.5c-7.6 0-13.9-6.2-13.9-13.9 0-7.6 6.2-13.9 13.9-13.9H810c7.6 0 13.9 6.2 13.9 13.9s-6.2 13.9-13.9 13.9z" fill="#C9CCC7"/>
<path d="M484.3 624l-128-135.1 179.2 52.8z" fill="#EC5C3D"/>
<path d="M483.9 623.8l178.5 52.4-128.6-135.5z" fill="#2E9DC7"/>
</g>
</svg>