<?xml version="1.0" encoding="UTF-8" standalone="no"?>
<svg
   version="1.2"
   width="221.14mm"
   height="298.8mm"
   viewBox="0 0 22114 29880"
   preserveAspectRatio="xMidYMid"
   fill-rule="evenodd"
   stroke-width="28.222"
   stroke-linejoin="round"
   xml:space="preserve"
   id="svg1228"
   sodipodi:docname="5.svg"
   inkscape:version="1.2.2 (732a01da63, 2022-12-09, custom)"
   xmlns:inkscape="http://www.inkscape.org/namespaces/inkscape"
   xmlns:sodipodi="http://sodipodi.sourceforge.net/DTD/sodipodi-0.dtd"
   xmlns="http://www.w3.org/2000/svg"
   xmlns:svg="http://www.w3.org/2000/svg"
   xmlns:ooo="http://xml.openoffice.org/svg/export"><sodipodi:namedview
   id="namedview1230"
   pagecolor="#ffffff"
   bordercolor="#000000"
   borderopacity="0.25"
   inkscape:showpageshadow="2"
   inkscape:pageopacity="0.0"
   inkscape:pagecheckerboard="0"
   inkscape:deskcolor="#d1d1d1"
   inkscape:document-units="mm"
   showgrid="false"
   inkscape:zoom="0.73318276"
   inkscape:cx="411.90276"
   inkscape:cy="564.66139"
   inkscape:window-width="1920"
   inkscape:window-height="1031"
   inkscape:window-x="0"
   inkscape:window-y="25"
   inkscape:window-maximized="1"
   inkscape:current-layer="svg1228" />
 <defs
   class="ClipPathGroup"
   id="defs1121">
  <clipPath
   id="presentation_clip_path"
   clipPathUnits="userSpaceOnUse">
   <rect
   x="0"
   y="0"
   width="22114"
   height="29880"
   id="rect1115" />
  </clipPath>
  <clipPath
   id="presentation_clip_path_shrink"
   clipPathUnits="userSpaceOnUse">
   <rect
   x="22"
   y="29"
   width="22070"
   height="29821"
   id="rect1118" />
  </clipPath>
 </defs>
 <defs
   class="TextShapeIndex"
   id="defs1125">
  <g
   ooo:slide="id1"
   ooo:id-list="id3 id4 id5 id6 id7 id8 id9"
   id="g1123" />
 </defs>
 <defs
   class="EmbeddedBulletChars"
   id="defs1157">
  <g
   id="bullet-char-template-57356"
   transform="scale(0.00048828125,-0.00048828125)">
   <path
   d="M 580,1141 L 1163,571 580,0 -4,571 580,1141 Z"
   id="path1127" />
  </g>
  <g
   id="bullet-char-template-57354"
   transform="scale(0.00048828125,-0.00048828125)">
   <path
   d="M 8,1128 L 1137,1128 1137,0 8,0 8,1128 Z"
   id="path1130" />
  </g>
  <g
   id="bullet-char-template-10146"
   transform="scale(0.00048828125,-0.00048828125)">
   <path
   d="M 174,0 L 602,739 174,1481 1456,739 174,0 Z M 1358,739 L 309,1346 659,739 1358,739 Z"
   id="path1133" />
  </g>
  <g
   id="bullet-char-template-10132"
   transform="scale(0.00048828125,-0.00048828125)">
   <path
   d="M 2015,739 L 1276,0 717,0 1260,543 174,543 174,936 1260,936 717,1481 1274,1481 2015,739 Z"
   id="path1136" />
  </g>
  <g
   id="bullet-char-template-10007"
   transform="scale(0.00048828125,-0.00048828125)">
   <path
   d="M 0,-2 C -7,14 -16,27 -25,37 L 356,567 C 262,823 215,952 215,954 215,979 228,992 255,992 264,992 276,990 289,987 310,991 331,999 354,1012 L 381,999 492,748 772,1049 836,1024 860,1049 C 881,1039 901,1025 922,1006 886,937 835,863 770,784 769,783 710,716 594,584 L 774,223 C 774,196 753,168 711,139 L 727,119 C 717,90 699,76 672,76 641,76 570,178 457,381 L 164,-76 C 142,-110 111,-127 72,-127 30,-127 9,-110 8,-76 1,-67 -2,-52 -2,-32 -2,-23 -1,-13 0,-2 Z"
   id="path1139" />
  </g>
  <g
   id="bullet-char-template-10004"
   transform="scale(0.00048828125,-0.00048828125)">
   <path
   d="M 285,-33 C 182,-33 111,30 74,156 52,228 41,333 41,471 41,549 55,616 82,672 116,743 169,778 240,778 293,778 328,747 346,684 L 369,508 C 377,444 397,411 428,410 L 1163,1116 C 1174,1127 1196,1133 1229,1133 1271,1133 1292,1118 1292,1087 L 1292,965 C 1292,929 1282,901 1262,881 L 442,47 C 390,-6 338,-33 285,-33 Z"
   id="path1142" />
  </g>
  <g
   id="bullet-char-template-9679"
   transform="scale(0.00048828125,-0.00048828125)">
   <path
   d="M 813,0 C 632,0 489,54 383,161 276,268 223,411 223,592 223,773 276,916 383,1023 489,1130 632,1184 813,1184 992,1184 1136,1130 1245,1023 1353,916 1407,772 1407,592 1407,412 1353,268 1245,161 1136,54 992,0 813,0 Z"
   id="path1145" />
  </g>
  <g
   id="bullet-char-template-8226"
   transform="scale(0.00048828125,-0.00048828125)">
   <path
   d="M 346,457 C 273,457 209,483 155,535 101,586 74,649 74,723 74,796 101,859 155,911 209,963 273,989 346,989 419,989 480,963 531,910 582,859 608,796 608,723 608,648 583,586 532,535 482,483 420,457 346,457 Z"
   id="path1148" />
  </g>
  <g
   id="bullet-char-template-8211"
   transform="scale(0.00048828125,-0.00048828125)">
   <path
   d="M -4,459 L 1135,459 1135,606 -4,606 -4,459 Z"
   id="path1151" />
  </g>
  <g
   id="bullet-char-template-61548"
   transform="scale(0.00048828125,-0.00048828125)">
   <path
   d="M 173,740 C 173,903 231,1043 346,1159 462,1274 601,1332 765,1332 928,1332 1067,1274 1183,1159 1299,1043 1357,903 1357,740 1357,577 1299,437 1183,322 1067,206 928,148 765,148 601,148 462,206 346,322 231,437 173,577 173,740 Z"
   id="path1154" />
  </g>
 </defs>
 
 <path
   fill="rgb(255,191,0)"
   stroke="none"
   d="M 9781,879 L 9815,1212 10814,1220 10839,2842 11232,2816 11249,1237 12307,1220 12316,879 11291,879 11240,51 10882,51 10839,819 9781,879 Z"
   id="path1166" /><path
   fill="rgb(112,110,12)"
   stroke="none"
   d="M 9431,8134 L 10814,8236 10814,8441 10899,8629 10942,8740 11112,8757 11206,8637 11300,8424 11351,8219 11880,8202 12623,8185 12674,8134 12589,8006 12205,7494 12111,7127 12060,6248 11949,5667 11513,5343 11095,5275 10634,5343 10284,5497 10071,5736 10028,6342 10003,7016 9952,7332 9798,7656 9431,8134 Z"
   id="path1173" /><path
   fill="#b2b2b2"
   stroke="none"
   d="m 8551,22934 48,5889 h 4931 l 24,-5913 z m 108,-746 4763,37 -169,-650 -457,-697 -493,-494 -830,-288 -829,36 -686,204 -637,493 -349,506 z m 3319,-9358 c 95,-162 145,-346 145,-532 0,-187 -50,-371 -145,-533 -95,-162 -232,-296 -396,-389 -165,-94 -352,-143 -542,-143 -190,0 -377,49 -541,143 -165,93 -302,227 -397,389 -95,162 -145,346 -145,533 0,186 50,370 145,532 95,162 232,296 397,389 164,94 351,143 541,143 190,0 377,-49 542,-143 164,-93 301,-227 396,-389 z M 1165,29777 v -955 h 568 V 15477 h 18639 v 13345 h 684 v 955 z m 7925,-25411 -226,331 -322,567 -198,765 -30,520 39,-1 -19,1399 10,1049 5395,-29 38,-1332 -19,-1833 -378,-1021 -875,-795 -3,21 -218,-208 -321,-94 -614,-104 -747,9 -737,189 -359,236 z m -1464,1937 47,-567 265,-756 406,-727 538,-596 775,-500 737,-284 h 596 l 897,57 577,254 v -28 l 671,397 888,1001 331,860 132,586 -9,1191 37,1238 -19,888 v 406 h -519 l -1553,22 774,3 h 1376 l 286,222 3948,2709 2010,1334 1037,751 -797,53 -6959,-21 -6118,32 -4350,-22 -3354,-10 7292,-5080 74,1 -64,-627 -18,-898 37,-1634 h 22 z m -6570,9159 v -617 h 19919 v 617 z"
   id="path1180"
   style="display:inline" /><path
   fill="rgb(222,230,239)"
   stroke="none"
   d="M 12123,12298 C 12123,12484 12073,12668 11978,12830 11883,12992 11746,13126 11582,13219 11417,13313 11230,13362 11040,13362 10850,13362 10663,13313 10499,13219 10334,13126 10197,12992 10102,12830 10007,12668 9957,12484 9957,12298 9957,12111 10007,11927 10102,11765 10197,11603 10334,11469 10499,11376 10663,11282 10850,11233 11040,11233 11230,11233 11417,11282 11582,11376 11746,11469 11883,11603 11978,11765 12073,11927 12123,12111 12123,12297 L 12123,12298 Z"
   id="path1187" /><path
   fill="rgb(222,230,239)"
   stroke="none"
   d="M 8659,22188 L 13422,22225 13253,21575 12796,20878 12303,20384 11473,20096 10644,20132 9958,20336 9321,20829 8972,21335 8659,22188 Z"
   id="path1194" /><path
   fill="rgb(123,61,0)"
   stroke="none"
   d="M 8551,22934 L 8599,28823 13530,28823 13554,22910 8551,22934 Z"
   id="path1201" /><path
   fill="#000000"
   stroke="none"
   d="m 1076,29316 v -563 l 291,-10 291,-10 v -6597 -6597 l -307,-10 -308,-10 -10,-307 -10,-308 -512,-17 -511,-18 3757,-2580 3757,-2580 20,-1935 c 14,-1344 33,-1984 63,-2095 244,-906 679,-1614 1308,-2123 474,-383 960,-608 1581,-730 l 309,-61 v -739 -738 l -521,-10 -520,-10 V 1041 813 l 520,-10 521,-9 10,-397 9,-397 h 245 245 l 10,397 10,397 520,9 520,10 v 228 227 l -520,10 -520,10 v 739 740 l 317,60 c 1392,261 2390,1212 2845,2711 78,258 80,316 99,2215 13,1340 31,1958 58,1976 21,14 1710,1168 3754,2565 l 3716,2540 -509,17 -509,18 -10,325 -10,325 -307,10 -308,10 v 6597 6597 l 327,10 326,10 v 539 540 l -5615,24 c -3088,12 -7596,23 -10018,23 H 1076 Z m 7443,16 v -441 l -3439,-7 c -1892,-5 -3539,-9 -3660,-9 l -221,-1 -10,403 c -5,222 -2,424 8,450 14,38 690,46 3670,46 h 3652 z m 4939,247 v -194 H 11077 8696 v 194 194 h 2381 2381 z m 7531,-282 v -423 l -255,1 c -141,0 -1796,4 -3678,8 l -3422,8 v 424 423 l 3678,-9 3677,-9 z m -7531,-229 v -177 H 11077 8696 v 177 176 h 2381 2381 z M 4409,27903 v -812 l -1305,10 -1305,9 -9,802 -10,803 h 1315 1314 z m 3286,648 c -12,-90 -22,-455 -22,-812 v -648 l -1561,10 -1561,9 -10,802 -9,803 h 1593 1592 z m 816,-639 -9,-802 -344,-10 -344,-10 v 812 813 h 353 354 z m 2460,-2054 V 23018 H 9807 8643 l -9,2804 c -4,1543 -1,2825 8,2849 13,35 266,43 1173,36 l 1156,-10 z m 2505,0 v -2840 h -1182 -1182 l -8,2804 c -5,1543 -1,2825 8,2849 12,35 269,43 1190,36 l 1174,-10 z m 793,2090 c -1,-422 -14,-788 -30,-813 -21,-33 -112,-43 -325,-36 l -297,11 -10,802 -9,803 h 336 335 z m 3281,-44 v -812 h -1570 c -1230,0 -1570,10 -1573,44 -2,25 -6,390 -9,812 l -5,767 h 1578 1579 z m 2787,4 v -807 l -185,-19 c -102,-10 -705,-9 -1341,2 l -1155,19 v 806 806 h 1340 1341 z m -17717,-1902 9,-962 -415,10 -415,10 -9,916 c -6,505 -2,938 8,963 13,35 114,43 415,36 l 397,-10 z m 3306,10 v -952 l -1578,-9 -1579,-10 v 971 970 l 1579,-8 1578,-9 z m 1754,-27 -15,-944 -799,9 -799,10 -9,916 c -5,505 -2,937 8,962 13,34 203,44 810,44 436,0 798,-12 806,-26 7,-15 6,-451 -2,-971 z m 721,962 h 119 l -9,-944 -9,-943 -344,-10 -344,-10 v 947 c 0,522 12,961 26,976 15,15 120,17 235,5 114,-11 261,-21 326,-21 z m 5851,-952 v -953 h -327 -326 v 953 952 h 326 327 z m 1534,0 v -953 h -705 -706 v 953 952 h 706 705 z m 3570,926 c 6,-15 6,-451 0,-970 l -11,-944 h -1665 c -915,1 -1684,13 -1707,28 -31,20 -43,270 -46,943 -2,504 -2,928 -1,943 1,14 770,26 1710,26 940,0 1714,-12 1720,-26 z m 796,3 186,-22 -9,-939 -10,-938 -414,-10 -415,-10 v 947 c 0,522 11,959 24,972 29,29 394,30 638,0 z M 4419,23955 c 5,-513 -4,-946 -20,-962 -17,-16 -612,-19 -1324,-6 l -1294,25 v 947 947 l 1314,-9 1314,-10 z m 3254,-20 v -971 l -1561,9 -1561,9 -10,917 c -5,504 -2,937 8,961 13,35 349,45 1570,45 h 1554 z m 838,9 9,-944 h -353 -353 v 954 954 l 344,-10 344,-11 z m 5750,17 -9,-943 h -318 -317 l -10,899 c -5,494 -1,919 8,943 12,32 111,45 336,45 h 319 z m 3281,-35 9,-961 h -1570 -1571 v 970 971 l 1561,-9 1561,-10 z m 2751,924 c 34,-10 44,-228 44,-932 v -920 l -80,-25 c -43,-14 -638,-21 -1321,-16 l -1243,10 -10,943 c -5,518 -5,953 0,967 10,25 2526,-1 2610,-27 z M 2610,21889 v -953 h -405 -406 l -9,917 c -6,504 -2,937 8,963 13,34 114,43 415,35 l 397,-10 z m 3316,0 v -953 l -1578,-9 -1579,-9 v 971 971 l 1579,-9 1578,-10 z m 1761,926 c 7,-24 31,-183 53,-352 52,-400 185,-853 358,-1223 77,-162 139,-302 139,-309 0,-7 -488,-9 -1085,-4 l -1085,9 -9,917 c -5,504 -2,937 8,961 24,65 1603,65 1621,1 z m 3284,-238 v -265 l -1109,-9 c -610,-5 -1121,3 -1137,18 -15,16 -38,143 -51,284 l -24,255 1161,-9 1160,-10 z m 2462,106 c -4,-88 -16,-211 -28,-274 l -21,-115 -1136,9 -1136,9 -11,226 c -5,124 -2,247 8,274 16,39 223,46 1175,39 l 1156,-10 z m -4914,32 c 0,-168 134,-788 215,-994 164,-419 349,-724 602,-998 l 100,-107 -211,-208 -210,-209 -92,87 c -161,151 -464,571 -610,844 -244,460 -464,1205 -464,1574 v 120 h 335 335 z m 5027,-1898 c -213,-289 -450,-568 -484,-568 -18,0 -117,75 -221,166 l -189,167 131,142 c 398,433 647,994 767,1728 l 61,372 h 311 312 v -108 c 0,-465 -355,-1446 -688,-1899 z m 2240,1019 v -988 h -1005 c -553,0 -1006,9 -1006,19 0,10 70,157 155,326 199,397 363,912 417,1313 l 44,318 h 697 698 z m 3581,0 v -970 l -1720,-9 -1720,-9 v 988 988 l 1720,-9 1720,-9 z m 952,0 v -970 h -405 -406 l -10,934 c -5,514 -1,955 9,980 13,35 114,44 415,36 l 397,-10 z m -7278,-511 c -186,-358 -614,-780 -959,-948 -466,-228 -975,-288 -1509,-179 -775,158 -1398,730 -1702,1564 -176,482 -458,427 2188,427 1610,0 2293,-12 2293,-38 0,-89 -192,-599 -311,-826 z M 4409,19825 v -970 H 3104 1799 l -9,934 c -6,514 -2,955 7,980 14,35 288,43 1315,36 l 1297,-10 z m 3276,-33 -24,-955 -1555,9 -1555,9 -10,934 c -5,514 -2,955 8,979 13,34 358,44 1568,44 908,0 1560,-13 1572,-32 11,-18 9,-462 -4,-988 z m 583,985 c 71,-1 120,-42 212,-177 484,-714 1351,-1219 2270,-1322 l 203,-22 v -186 -187 l -323,-23 c -177,-12 -884,-22 -1569,-22 H 7814 v 964 c 0,530 12,976 26,991 15,15 96,17 181,6 86,-12 197,-22 247,-22 z m 5993,-978 9,-926 h -1588 -1588 v 192 192 l 168,20 c 306,37 688,132 930,233 482,198 999,601 1342,1045 l 146,190 286,-10 286,-10 z m 2890,908 h 400 l -9,-926 -10,-926 -1375,-10 c -757,-6 -1458,-1 -1558,11 l -181,21 -15,906 c -8,499 -8,921 2,939 10,19 492,22 1181,8 640,-12 1344,-23 1565,-23 z m 3178,-926 -10,-926 -1314,-9 -1314,-9 v 879 c 0,484 -10,905 -21,935 -20,51 111,56 1323,56 h 1345 z m -7967,593 191,126 192,-192 192,-191 -225,-160 c -791,-561 -1720,-699 -2641,-392 -271,90 -664,303 -837,453 l -97,85 208,212 208,211 109,-83 c 60,-46 205,-131 322,-189 730,-362 1723,-312 2378,120 z M 2610,17762 v -953 h -405 -406 l -9,917 c -6,504 -2,937 8,962 13,35 114,44 415,36 l 397,-10 z m 3316,0 v -953 l -1578,-9 -1579,-9 v 971 970 l 1579,-9 1578,-9 z m 3281,0 v -953 H 7637 6067 l -9,917 c -5,504 -2,937 8,961 14,36 338,44 1579,36 l 1562,-9 z m 3306,14 c 6,-525 3,-962 -5,-970 -8,-8 -717,-14 -1575,-14 H 9372 l -13,943 c -7,519 -8,956 -1,970 7,15 717,27 1579,27 h 1566 z m 3273,-22 18,-960 -1570,7 -1570,8 -9,962 -10,961 1562,-9 1562,-9 z m 3566,963 c 8,-8 10,-445 5,-970 l -10,-955 h -1708 -1707 l -11,943 c -6,519 -6,956 0,970 11,27 3404,39 3431,12 z m 986,-30 -9,-939 -10,-939 h -405 -406 l -10,917 c -5,504 -1,936 8,961 19,49 383,61 668,22 z M 4392,16103 v -582 l -1297,9 -1296,9 -10,528 c -5,290 -2,548 8,573 14,36 284,46 1306,46 h 1289 z m 3311,459 c 6,-58 1,-316 -13,-573 l -25,-468 -1557,9 -1557,9 -10,528 c -6,290 -2,548 7,573 14,36 330,44 1580,37 l 1562,-9 z m 3261,97 c 9,-14 7,-276 -2,-582 l -18,-556 -1556,9 -1557,9 -9,528 c -6,290 -2,548 7,573 14,36 332,46 1569,46 853,0 1558,-12 1566,-27 z m 3288,-555 v -565 h -1570 -1570 l -10,528 c -5,290 -2,548 8,573 14,37 321,45 1580,37 l 1562,-9 z m 3280,0 v -565 l -1556,-9 -1556,-9 -18,556 c -10,306 -11,568 -2,583 8,14 716,22 1574,17 l 1558,-9 z m 2180,548 627,-2 -10,-555 -10,-556 -1311,-9 -1312,-9 -12,556 c -6,306 -8,565 -4,576 5,12 322,17 706,11 384,-6 981,-11 1326,-12 z m 1242,-1501 v -247 h -8290 c -4559,0 -9016,5 -9904,10 l -1614,9 v 223 c 0,122 11,233 23,246 13,13 4470,19 9904,14 l 9881,-8 z m 686,-457 c -28,-28 -1645,-1139 -3593,-2469 l -3541,-2419 -3461,9 -3461,9 -3570,2452 c -1964,1349 -3571,2466 -3572,2484 -1,18 180,22 431,9 238,-13 5019,-24 10625,-24 8808,-1 10186,-8 10142,-51 z m -11145,-580 c -338,-109 -575,-253 -820,-499 -987,-986 -580,-2599 770,-3052 1135,-381 2359,361 2524,1530 128,899 -493,1798 -1406,2036 -279,72 -822,65 -1068,-15 z m 1645,-411 114,-86 -204,-194 -204,-195 -222,115 c -384,198 -862,178 -1223,-51 l -164,-104 -188,187 c -104,102 -189,199 -189,214 0,53 338,273 532,346 345,130 605,158 949,103 245,-39 614,-194 799,-335 z m 684,-1635 c -45,-264 -213,-641 -371,-832 l -87,-106 -208,206 -208,206 116,172 c 109,163 193,428 193,615 0,187 -84,453 -193,615 l -115,172 197,197 c 109,109 206,197 216,197 10,-1 69,-69 131,-152 280,-372 402,-852 329,-1290 z m -2679,1022 -89,-133 c -127,-194 -196,-416 -196,-631 0,-203 102,-520 213,-661 38,-48 69,-96 69,-105 0,-10 -95,-100 -211,-200 l -211,-183 -87,100 c -199,229 -373,719 -373,1052 0,227 79,530 199,768 101,200 229,378 264,368 12,-4 111,-90 222,-191 z m 1953,-761 c 0,-298 -86,-511 -287,-712 -215,-215 -438,-306 -752,-308 -411,-2 -736,188 -936,549 -92,166 -104,224 -104,471 0,208 18,315 67,406 118,221 259,372 440,471 328,178 641,191 977,41 381,-170 595,-500 595,-918 z m -1227,-1147 c 254,-42 543,13 784,147 l 190,106 189,-187 c 104,-102 189,-199 189,-214 0,-53 -373,-271 -585,-341 -320,-107 -621,-126 -932,-61 -293,62 -658,231 -780,361 l -80,85 191,194 c 198,200 227,217 264,157 43,-70 380,-216 570,-247 z m 3591,-3315 c -1,-1740 -5,-1831 -78,-2145 -163,-693 -461,-1256 -928,-1749 -431,-455 -872,-737 -1444,-922 -394,-128 -1168,-164 -1600,-75 -1446,299 -2559,1583 -2740,3162 -39,346 -47,3420 -8,3480 15,22 58,48 97,57 39,10 1563,16 3386,13 l 3316,-5 z M 8272,7548 c 0,-1625 14,-1772 215,-2293 239,-621 744,-1183 1315,-1463 478,-235 691,-282 1275,-280 568,2 794,50 1234,262 678,327 1188,956 1435,1768 76,251 79,321 91,1875 l 13,1614 H 11061 8272 Z m 5461,178 c 13,-1380 -21,-1820 -173,-2274 -58,-174 -123,-337 -143,-362 -29,-35 -242,-45 -914,-45 -865,0 -876,0 -930,78 -80,114 -69,144 78,211 73,34 201,131 286,218 186,189 212,297 214,886 3,738 74,1024 318,1279 163,171 319,415 319,500 0,23 -253,40 -696,46 l -695,9 -24,116 c -13,64 -48,144 -77,177 -30,33 -59,100 -66,148 -11,78 -31,90 -180,99 -164,11 -167,9 -167,-91 0,-58 -31,-131 -70,-166 -39,-35 -80,-116 -92,-182 l -23,-118 h -683 c -450,0 -684,-13 -684,-37 0,-81 156,-336 302,-492 239,-255 300,-498 329,-1314 l 24,-663 190,-192 c 104,-105 238,-211 298,-234 60,-24 114,-47 120,-52 7,-5 -14,-57 -45,-117 l -56,-109 h -880 -880 l -50,97 c -99,192 -228,667 -266,978 -41,337 -55,2742 -16,2781 13,12 1215,19 2672,14 l 2650,-8 z m -2609,880 c 7,-47 42,-122 78,-167 104,-133 54,-189 -156,-177 -205,12 -255,86 -130,193 40,34 73,96 73,137 0,147 114,159 135,14 z m 1452,-515 c 0,-23 -93,-143 -207,-269 -113,-125 -217,-269 -229,-320 l -23,-92 -1058,-1 h -1057 l -54,127 c -29,70 -140,221 -247,337 -107,116 -188,221 -180,234 8,13 699,24 1535,24 1121,0 1520,-10 1520,-40 z m -512,-886 c -14,-53 -36,-383 -49,-732 -27,-700 -38,-739 -274,-919 -169,-129 -630,-234 -814,-185 -73,20 -196,44 -274,53 -159,21 -413,206 -489,357 -32,63 -55,302 -70,712 -12,339 -31,661 -44,714 l -22,97 h 1031 1031 z m -864,-2055 c 0,-58 -23,-70 -139,-70 -140,0 -201,40 -161,106 12,19 85,35 161,35 116,0 139,-12 139,-71 z m -617,-282 c 57,-63 109,-70 476,-70 368,0 419,7 476,70 61,67 109,71 923,71 478,0 859,-14 859,-32 0,-68 -317,-456 -532,-650 -273,-247 -679,-455 -1090,-558 -250,-62 -369,-72 -740,-57 -516,20 -847,113 -1254,353 -277,163 -698,572 -822,796 l -82,148 h 861 c 816,0 864,-4 925,-71 z m 609,-2900 10,-802 519,-10 520,-10 V 1041 935 l -519,-10 -519,-10 -10,-396 -10,-396 h -124 -123 l -10,396 -10,396 -519,10 -520,10 v 106 105 l 521,10 520,10 v 787 c 0,433 11,798 25,812 14,14 74,20 132,15 l 108,-11 z"
   id="path1213"
   style="display:inline" />
</svg>
